<svg width="54" height="54" viewBox="0 0 54 54" fill="none" xmlns="http://www.w3.org/2000/svg">
<path fill-rule="evenodd" clip-rule="evenodd" d="M27 5.05505C14.5687 5.05505 4.5 15.1238 4.5 27.5551C4.5 37.5113 10.9406 45.9207 19.8844 48.9019C21.0094 49.0988 21.4312 48.4238 21.4312 47.8332C21.4312 47.2988 21.4031 45.5269 21.4031 43.6426C15.75 44.6832 14.2875 42.2644 13.8375 40.9988C13.5844 40.3519 12.4875 38.3551 11.5312 37.8207C10.7437 37.3988 9.61875 36.3582 11.5031 36.3301C13.275 36.3019 14.5406 37.9613 14.9625 38.6363C16.9875 42.0394 20.2219 41.0832 21.5156 40.4926C21.7125 39.0301 22.3031 38.0457 22.95 37.4832C17.9437 36.9207 12.7125 34.9801 12.7125 26.3738C12.7125 23.9269 13.5844 21.9019 15.0188 20.3269C14.7938 19.7644 14.0062 17.4582 15.2437 14.3644C15.2437 14.3644 17.1281 13.7738 21.4312 16.6707C23.2312 16.1644 25.1438 15.9113 27.0563 15.9113C28.9688 15.9113 30.8813 16.1644 32.6813 16.6707C36.9844 13.7457 38.8688 14.3644 38.8688 14.3644C40.1063 17.4582 39.3188 19.7644 39.0938 20.3269C40.5281 21.9019 41.4 23.8988 41.4 26.3738C41.4 35.0082 36.1406 36.9207 31.1344 37.4832C31.95 38.1863 32.6531 39.5363 32.6531 41.6457C32.6531 44.6551 32.625 47.0738 32.625 47.8332C32.625 48.4238 33.0469 49.1269 34.1719 48.9019C38.6385 47.394 42.5199 44.5234 45.2695 40.694C48.0192 36.8646 49.4988 32.2694 49.5 27.5551C49.5 15.1238 39.4313 5.05505 27 5.05505Z" fill="white"/>
</svg>
